<svg xmlns="http://www.w3.org/2000/svg" viewBox="0 0 101 48">
<path fill="#fff" d="M5.1,16L0,28h3.1l1.1-2.7h5.9l1.1,2.7H17v-9.4l4.1,9.4h2.5l4.1-9.4V28h2.9V16H26l-3.4,8.1L18.8,16h-4.7v11.4L9.3,16H5.1z
	 M32.8,16v12h9.5v-2.5h-6.7v-2.4h6.5v-2.5h-6.5v-2.2h6.7V16L32.8,16z M44.3,16v12h2.8v-4.4h3.1c1,0,1.7,0.1,2.1,0.5
	c0.5,0.6,0.5,1.6,0.5,2.3l0,1.5h2.9v-2.4c0-1.1-0.1-1.6-0.5-2.2c-0.3-0.4-0.8-0.8-1.4-1c0.7-0.3,2-1.3,2-3.2c0-1.3-0.5-2.1-1.4-2.7
	c-0.9-0.5-2-0.6-3.4-0.6L44.3,16z M57.4,16v12h2.9V16H57.4z M67.6,16c-2,0-3.4,0.4-4.3,1.4c-1.2,1.3-1.5,2.9-1.5,4.7
	c0,2.2,0.5,3.6,1.5,4.6c1,1,2.7,1.3,4.1,1.3h3.3l1.1-2.7h5.9l1.1,2.7h5.8l0-9l5.4,9h4V16h-2.9v8.4l-5-8.4h-4.3v11.4L76.9,16h-4.3
	l-4,9.4h-1.3c-0.7,0-1.5-0.1-2-0.6c-0.5-0.6-0.8-1.5-0.8-2.8c0-1.3,0.3-2.2,0.8-2.7c0.6-0.6,1.2-0.7,2.2-0.7h2.7V16H67.6z M7.2,18
	l1.9,4.8H5.2L7.2,18z M74.7,18l2,4.8h-3.9L74.7,18z M47.2,18.5h3.5c0.5,0,1,0,1.4,0.2c0.4,0.2,0.6,0.6,0.6,1.1
	c0,0.5-0.2,0.9-0.6,1.2c-0.4,0.2-0.9,0.2-1.4,0.2h-3.5V18.5L47.2,18.5z M21,30v12h11.4l3.7-4l3.5,4h5.6v-4h3.6c2.5,0,5-0.7,5-4
	c0-3.3-2.6-4-4.8-4h-9.2l-3.7,3.9L32.6,30L21,30z M55.2,30v12H58v-4.4h3.1c1,0,1.7,0.1,2.1,0.5c0.5,0.6,0.5,1.6,0.5,2.3V42h2.9v-2.4
	c0-1.1-0.1-1.6-0.5-2.2c-0.2-0.4-0.8-0.8-1.4-1c0.8-0.3,2-1.3,2-3.2c0-1.4-0.6-2.1-1.5-2.7c-0.9-0.5-2-0.6-3.5-0.6L55.2,30z
	 M68.3,30v12h9.6v-2.5l-6.7,0v-2.4h6.6v-2.4h-6.6v-2.2h6.7V30L68.3,30z M83.4,30c-3,0-4.1,1.8-4.1,3.6c0,3.8,3.4,3.6,6.1,3.7
	c0.5,0,0.8,0.1,1,0.3c0.2,0.2,0.4,0.4,0.4,0.8c0,0.3-0.1,0.6-0.3,0.8c-0.2,0.2-0.6,0.3-1.2,0.3h-5.6V42h5.6c2.9,0,4.5-1.2,4.5-3.8
	c0-1.2-0.3-2-0.9-2.5c-0.7-0.6-1.7-0.9-3.3-1l-1.6,0c-0.5,0-0.8,0-1.1-0.1c-0.4-0.1-0.6-0.4-0.6-0.9c0-0.4,0.1-0.7,0.4-0.9
	c0.3-0.2,0.6-0.2,1.2-0.2h5.3V30L83.4,30z M94.7,30c-3,0-4.1,1.8-4.1,3.6c0,3.8,3.4,3.6,6.1,3.7c0.5,0,0.8,0.1,1,0.3
	c0.2,0.2,0.4,0.4,0.4,0.8c0,0.3-0.1,0.6-0.3,0.8c-0.2,0.2-0.6,0.3-1.2,0.3h-5.6V42h5.6c2.9,0,4.5-1.2,4.5-3.8c0-1.2-0.3-2-0.9-2.5
	c-0.7-0.6-1.7-0.9-3.3-1l-1.6,0c-0.5,0-0.8,0-1.1-0.1c-0.4-0.1-0.6-0.4-0.6-0.9c0-0.4,0.1-0.7,0.4-0.9c0.3-0.2,0.6-0.2,1.2-0.2h5.3
	V30L94.7,30z M42.3,31.3v9.6L37.9,36L42.3,31.3z M23.9,32.5h7.2l3.2,3.5l-3.3,3.5h-7.1v-2.4h6.3v-2.4h-6.3L23.9,32.5z M45.2,32.5H49
	c1,0,1.8,0.4,1.8,1.5c0,1-0.7,1.6-1.8,1.6h-3.7L45.2,32.5z M58,32.5h3.5c0.5,0,1,0,1.4,0.2c0.4,0.2,0.6,0.6,0.6,1.1
	c0,0.5-0.2,0.9-0.6,1.2c-0.4,0.2-0.9,0.2-1.4,0.2H58V32.5z"/>
</svg>