<svg xmlns="http://www.w3.org/2000/svg" viewBox="0 0 128 48">
<path fill="#fff" d="M31.1,18.5c-3.6,0-6.3,2.5-6.3,5.8c0,2.8,1.3,4.2,5,5.5c1.5,0.5,2.3,0.9,2.7,1.2
	c0.8,0.5,1.2,1.2,1.2,2.1c0,1.6-1.3,2.8-3.1,2.8c-1.9,0-3.4-0.9-4.3-2.7l-2.5,2.5c1.8,2.7,4,3.8,7,3.8c4.1,0,7-2.7,7-6.6
	c0-3.2-1.3-4.7-5.8-6.3c-2.4-0.9-3.1-1.5-3.1-2.5c0-1.3,1.2-2.2,2.9-2.2c1.2,0,2.2,0.5,3.2,1.6l2.1-2.7
	C35.4,19.3,33.3,18.5,31.1,18.5z M49.6,18.5c-5.9,0-10.7,4.7-10.7,10.5c0,5.9,4.6,10.5,10.6,10.5c1.7,0,3.1-0.3,4.9-1.2v-4.6
	c-1.6,1.6-3,2.2-4.7,2.2c-3.9,0-6.7-2.9-6.7-6.9c0-3.9,2.9-6.9,6.6-6.9c1.9,0,3.3,0.7,4.9,2.3v-4.6C52.7,18.9,51.3,18.5,49.6,18.5z
	 M66.7,18.5c-5.9,0-10.8,4.6-10.8,10.4c0,6.1,4.6,10.6,10.8,10.6c6,0,10.7-4.6,10.7-10.5C77.4,23.1,72.7,18.5,66.7,18.5z M0,19v20
	h5.7c3,0,5.2-0.7,7.2-2.3c2.3-1.9,3.6-4.7,3.6-7.7c0-5.9-4.4-10-10.8-10H0z M18.4,19v20h3.9V19H18.4z M76.6,19l8.3,20h2.1l8.4-20
	h-4.1L86,32.1L80.7,19H76.6z M97.7,19v20h11v-3.4h-7.1v-5.4h6.9v-3.4h-6.9v-4.4h7.1V19H97.7z M111.4,19v20h3.9v-8h0.5l5.4,8h4.8
	l-6.3-8.4c2.9-0.6,4.5-2.6,4.5-5.7c0-3.7-2.6-5.9-7-5.9H111.4z M126.5,19.2c-0.9,0-1.5,0.7-1.5,1.5c0,0.9,0.7,1.5,1.5,1.5
	c0.8,0,1.5-0.7,1.5-1.5C128,19.9,127.3,19.2,126.5,19.2z M126.5,19.5c0.7,0,1.2,0.6,1.2,1.3c0,0.7-0.5,1.3-1.2,1.3
	c-0.7,0-1.2-0.6-1.2-1.3C125.2,20.1,125.8,19.5,126.5,19.5z M125.8,19.9v1.8h0.4V21l0.5,0.7h0.5l-0.6-0.7c0.2-0.1,0.4-0.2,0.4-0.5
	c0-0.4-0.2-0.5-0.7-0.5H125.8z M126.2,20.2L126.2,20.2c0.3,0,0.4,0.1,0.4,0.2c0,0.2-0.1,0.2-0.3,0.2h-0.1V20.2z M115.3,22.1h1.2
	c2.4,0,3.7,1,3.7,3c0,2-1.3,3.1-3.8,3.1h-1.1V22.1z M3.9,22.4H5c2.5,0,4.1,0.5,5.4,1.6c1.4,1.2,2.2,3.1,2.2,5c0,1.9-0.8,3.8-2.2,5
	c-1.2,1.1-2.8,1.6-5.4,1.6H3.9V22.4z"/>
</svg>