<svg xmlns="http://www.w3.org/2000/svg" viewBox="0 0 64 48">
<path fill="#fff" d="M19.1,10C8.6,10,0,18.5,0,29c0,10.5,8.6,19,19.1,19c4.9,0,9.5-1.9,12.9-4.9c3.4,3.1,7.9,4.9,12.9,4.9
	C55.4,48,64,39.5,64,29c0-10.5-8.6-19-19.1-19c-4.9,0-9.5,1.9-12.9,4.9c-0.1,0.1-0.2,0.2-0.3,0.3c0.1-0.1,0.2-0.2,0.3-0.3
	C28.6,11.9,24.1,10,19.1,10z M42.4,24.1c0.4,0,0.7,0,0.9,0.1l0.9,0.2c0.3,0.1,0.3,0.1,0.5,0.2l-0.3,2.1c-0.7-0.4-1.3-0.5-1.9-0.5
	c-1.6,0-2.6,1.5-2.6,3.6c0,1.5,0.7,2.3,1.9,2.3c0.5,0,1.1-0.2,1.8-0.5l-0.4,2.2c-0.8,0.2-1.3,0.3-1.8,0.3c-2.2,0-3.6-1.6-3.6-4.2
	C37.7,26.5,39.6,24.1,42.4,24.1L42.4,24.1z M3.4,24.3h3l0.1,6l2-6h3.2L10.2,34H8.1l1.2-7.4L6.6,34H5.2L5,26.6L3.8,34H1.8L3.4,24.3
	L3.4,24.3z M60.1,24.3h2L60.5,34h-2l0.1-0.8c-0.6,0.6-1.2,0.9-1.9,0.9c-1.5,0-2.5-1.3-2.5-3.3c0-2.6,1.5-4.8,3.4-4.8
	c0.8,0,1.4,0.3,2,1.1L60.1,24.3z M24.1,25h2.1l-0.2,1.2H27L26.7,28h-1.1l-0.5,3.3c0,0.1,0,0.3,0,0.3c0,0.4,0.2,0.6,0.7,0.6
	c0.2,0,0.4,0,0.6-0.1L26,33.9c-0.6,0.2-1,0.3-1.5,0.3c-1.1,0-1.6-0.6-1.6-1.7c0-0.2,0-0.5,0.1-0.7l0.1-0.8l0.1-0.6L24.1,25L24.1,25z
	 M30.3,25.9c1.7,0,2.8,1.1,2.8,2.8c0,0.6-0.1,1.1-0.3,1.9h-4.1c0,0.1,0,0.2,0,0.2c0,0.9,0.6,1.4,1.8,1.4c0.7,0,1.4-0.2,2.2-0.5
	l-0.3,2c-0.7,0.2-1.4,0.3-2.1,0.3c-2.3,0-3.5-1.2-3.5-3.5C26.7,27.9,28.2,25.9,30.3,25.9L30.3,25.9z M14.8,26c1.8,0,2.7,0.8,2.7,2.3
	c0,0.4,0,0.7-0.2,1.6L17,32.6l-0.1,0.5l-0.1,0.4l0,0.3l0,0.2h-1.7l0-0.8c-0.5,0.6-1.2,0.9-2.2,0.9c-1.1,0-1.9-0.9-1.9-2.1
	c0-1.9,1.3-3,3.6-3c0.2,0,0.5,0,0.8,0.1c0.1-0.3,0.1-0.4,0.1-0.5c0-0.5-0.4-0.7-1.3-0.7c-0.6,0-1.3,0.1-1.7,0.2l-0.3,0.1l-0.2,0
	l0.3-1.8C13.4,26.1,14.1,26,14.8,26L14.8,26z M47.6,26c1.8,0,2.7,0.8,2.7,2.3c0,0.4,0,0.7-0.2,1.6l-0.4,2.8l-0.1,0.5l-0.1,0.4l0,0.3
	l0,0.2h-1.7l0-0.8c-0.5,0.6-1.2,0.9-2.2,0.9c-1.1,0-1.9-0.9-1.9-2.1c0-1.9,1.3-3,3.7-3c0.2,0,0.5,0,0.8,0.1c0.1-0.3,0.1-0.4,0.1-0.5
	c0-0.5-0.4-0.7-1.3-0.7c-0.6,0-1.3,0.1-1.7,0.2L45,28.1l-0.2,0l0.3-1.8C46.1,26.1,46.8,26,47.6,26L47.6,26z M21.2,26
	c0.5,0,1.3,0.1,1.8,0.2l-0.3,1.8c-0.5-0.1-1.1-0.1-1.5-0.1c-0.7,0-1,0.2-1,0.6c0,0.4,0.1,0.5,1,0.8c1,0.5,1.5,1.1,1.5,2.2
	c0,1.8-1,2.6-3.2,2.6c-0.3,0-0.7,0-1.1-0.1c-0.2,0-0.4,0-0.5-0.1l-0.4-0.1l-0.1,0l0.3-1.8c0.7,0.2,1.2,0.3,1.9,0.3
	c0.8,0,1.2-0.2,1.2-0.7c0-0.4-0.1-0.5-1-0.9c-1.1-0.5-1.6-1.2-1.6-2.2C18,27.2,18.8,26,21.2,26L21.2,26z M37.8,26.1
	c0.1,0,0.1,0,0.2,0l0.1,0c-0.3,0.6-0.6,1.3-0.8,2.3c-0.1,0-0.1,0-0.2,0c-1,0-1.2,0.8-1.9,5.6h-2.1l1.3-7.8h1.9l-0.2,1.2
	C36.7,26.4,37.1,26.1,37.8,26.1L37.8,26.1z M54.9,26.1c0.1,0,0.1,0,0.2,0l0.1,0c-0.3,0.6-0.6,1.3-0.8,2.3c-0.1,0-0.1,0-0.1,0
	c-1,0-1.2,0.8-1.9,5.6h-2.1l1.3-7.8h1.9l-0.2,1.2C53.8,26.4,54.2,26.1,54.9,26.1L54.9,26.1z M30.2,27.7c-0.7,0-1.1,0.5-1.3,1.4
	l2.3,0c0-0.2,0-0.3,0-0.4C31.2,28.1,30.9,27.7,30.2,27.7L30.2,27.7z M58,28c-0.9,0-1.6,1.1-1.6,2.6c0,1,0.4,1.5,1.1,1.5
	c1,0,1.6-1.1,1.6-2.6C59.1,28.5,58.7,28,58,28z M14.8,30.5c-1.2,0-1.8,0.4-1.8,1.2c0,0.5,0.3,0.8,0.7,0.8c0.8,0,1.5-0.8,1.5-2
	C15.1,30.5,15,30.5,14.8,30.5L14.8,30.5z M47.6,30.5c-1.2,0-1.8,0.4-1.8,1.2c0,0.5,0.3,0.8,0.7,0.8c0.8,0,1.5-0.8,1.5-2
	C47.8,30.5,47.7,30.5,47.6,30.5L47.6,30.5z M62.1,32.8c0.3,0,0.6,0.3,0.6,0.6c0,0.3-0.3,0.6-0.6,0.6s-0.6-0.3-0.6-0.6
	C61.4,33.1,61.7,32.8,62.1,32.8z M62.1,32.9c-0.3,0-0.5,0.2-0.5,0.5c0,0.3,0.2,0.5,0.5,0.5c0.3,0,0.5-0.2,0.5-0.5
	S62.3,32.9,62.1,32.9z M61.9,33.1h0.2c0,0,0.1,0,0.1,0c0,0,0.1,0.1,0.1,0.1c0,0.1,0,0.1-0.1,0.1l0.1,0.2h-0.1l-0.1-0.2H62v0.2h-0.1
	V33.1L61.9,33.1z M62,33.2v0.1l0,0h0.1c0,0,0.1,0,0.1,0c0,0,0,0,0-0.1c0,0,0,0,0-0.1C62.1,33.2,62.1,33.2,62,33.2L62,33.2L62,33.2z"/>
</svg>