<?xml version="1.0" encoding="utf-8"?>
<!-- Generator: Adobe Illustrator 16.0.0, SVG Export Plug-In . SVG Version: 6.00 Build 0)  -->
<!DOCTYPE svg PUBLIC "-//W3C//DTD SVG 1.1//EN" "http://www.w3.org/Graphics/SVG/1.1/DTD/svg11.dtd">
<svg version="1.1" id="Layer_1" xmlns="http://www.w3.org/2000/svg" xmlns:xlink="http://www.w3.org/1999/xlink" x="0px" y="0px"
	 width="80px" height="44px" viewBox="0 0 80 44" enable-background="new 0 0 80 44" xml:space="preserve">
<path fill="#40a7ef" fill-opacity="0.75" d="M35.488,0v1.346h-1.313v1.344h1.313v1.346h1.346V2.689h-1.313V1.346h1.313V0H35.488z
	 M31.621,2.689v1.346h-1.244v2.59h1.244V5.346h1.244V4.035h1.211V2.689H31.621z M32.865,5.346v1.279h1.447V5.346H32.865z
	 M32.865,6.625h-1.244v1.277h1.244V6.625z M31.621,7.902h-1.244V9h-1.242V7.902h-2.119v0.143C24.235,6.071,20.91,5.007,17.5,5
	C8.387,5,1,12.387,1,21.5l0,0C1,30.613,8.387,38,17.5,38c3.389-0.003,6.695-1.05,9.469-2.998H65.5c7.193,0,13-5.807,13-13
	S72.693,9,65.5,9H31.621V7.902z M29.135,7.902h1.242V6.625h-1.242V7.902z M29.135,6.625V5.381h-1.279v1.244H29.135z M17.5,7.5
	c2.804,0.001,5.544,0.844,7.863,2.42h-0.803v1.984h-1.277v1.244h-0.842v1.277H21.5c-1.883,2.791-3.361,5.547-4.438,8.338
	c-2.421-3.396-4.673-5.414-6.758-6.086c-0.572-0.168-0.976-0.033-1.211,0.471c-0.235,0.504-0.034,1.143,0.672,1.883
	c2.118,2.32,4.069,5.615,5.852,9.818c0.269,0.672,0.873,1.042,1.848,1.143c0.908,0.067,1.515-0.268,1.783-1.008
	c1.312-3.463,2.826-6.422,4.574-8.943v-1.447h1.008V17.35h1.076v-1.512h1.244v-1.412h1.277v-1.277h0.291
	c1.801,2.413,2.776,5.341,2.781,8.352c0,7.732-6.268,14-14,14l0,0c-7.732,0-14-6.268-14-14C3.5,13.768,9.768,7.5,17.5,7.5z
	 M72.426,8v0.375h0.602V10h0.439V8.375h0.602V8H72.426z M74.301,8v2h0.418V8.594L75.217,10h0.34l0.49-1.42V10h0.414V8h-0.613
	l-0.455,1.375L74.926,8H74.301z M31.621,10.002H65.5c6.656,0,12,5.343,12,12C77.5,28.658,72.156,34,65.5,34H28.258
	C31.9,30.868,33.997,26.304,34,21.5c-0.008-3.646-1.223-7.186-3.455-10.068v-0.873h1.076V10.002z M55.684,15.561
	c-1.245,0-2.055,0.63-2.055,1.598c0,1.087,0.833,1.305,1.703,1.553c1.103,0.315,1.463,0.391,1.463,0.811
	c0,0.442-0.375,0.711-0.99,0.711c-0.713,0-1.187-0.284-1.209-1.004h-1.162c0.016,1.208,0.871,1.904,2.318,1.904
	c1.088,0,2.197-0.465,2.197-1.725c0-0.893-0.607-1.259-1.561-1.529c-1.064-0.3-1.635-0.338-1.635-0.803
	c0-0.382,0.323-0.607,0.863-0.607c0.623,0,0.967,0.277,1.012,0.795h1.109C57.716,16.071,56.809,15.561,55.684,15.561z M38,15.674
	l1.748,5.34h1.326l1.777-5.34h-1.215l-1.215,3.75l-1.199-3.75H38z M51.338,15.674v0.9h1.064v-0.9H51.338z M59,15.674v0.9h1.064v-0.9
	H59z M45.004,17.031c-1.125,0-1.941,0.87-1.941,2.07c0,1.215,0.788,2.023,1.98,2.023c0.877,0,1.574-0.473,1.814-1.313h-1.02
	c-0.158,0.39-0.398,0.563-0.789,0.563c-0.57,0-0.891-0.36-0.906-1.027h2.775v-0.104C46.918,17.887,46.174,17.031,45.004,17.031z
	 M62.889,17.039c-1.02,0-1.695,0.779-1.695,1.957c0,1.163,0.646,1.904,1.65,1.904c0.51,0,0.893-0.195,1.186-0.6l-0.008,0.436
	c-0.008,0.623-0.143,1.004-0.855,1.004c-0.465,0-0.697-0.149-0.779-0.494h-1.059c0.105,0.81,0.699,1.207,1.816,1.207
	c1.26,0,1.904-0.556,1.904-1.846v-3.465h-1.004v0.518C63.76,17.225,63.429,17.039,62.889,17.039L62.889,17.039z M68.656,17.039
	c-0.547,0-0.974,0.232-1.281,0.645v-0.541h-1.014v3.871h1.059v-2.078c0-0.563,0.202-1.02,0.84-1.02c0.57,0,0.66,0.36,0.66,0.84
	v2.258H70v-2.588C70,17.526,69.474,17.039,68.656,17.039L68.656,17.039z M50.238,17.053c-0.578,0-1.012,0.3-1.252,0.803v-0.713
	h-1.012v3.871h1.064v-1.77c0-0.705,0.285-1.23,1.02-1.23c0.12,0,0.225,0.007,0.412,0.045v-0.982
	C50.365,17.061,50.32,17.053,50.238,17.053z M51.338,17.143v3.871h1.064v-3.871H51.338z M59,17.143v3.871h1.064v-3.871H59z
	 M45.004,17.803c0.533,0,0.789,0.398,0.834,0.871h-1.695C44.203,18.134,44.531,17.803,45.004,17.803z M63.137,17.863
	c0.563,0,0.9,0.412,0.9,1.102c0,0.705-0.345,1.141-0.893,1.141c-0.555,0-0.9-0.435-0.9-1.117
	C62.244,18.283,62.574,17.863,63.137,17.863z M38,22.623v0.998h1.605v4.342h1.178v-4.342h1.604v-0.998H38z M68.943,22.623v1.951
	c-0.248-0.397-0.721-0.586-1.178-0.586c-1.027,0-1.695,0.803-1.695,2.025c0,1.252,0.682,2.055,1.754,2.055
	c0.533,0,0.915-0.202,1.17-0.6v0.494H70v-5.34H68.943z M57.674,22.924v1.17h-0.645v0.719h0.645v2.012
	c0,0.945,0.284,1.184,1.199,1.184c0.24,0,0.354-0.007,0.646-0.029v-0.811c-0.127,0.016-0.21,0.016-0.322,0.016
	c-0.457,0-0.465-0.172-0.465-0.547v-1.824h0.787v-0.719h-0.787v-1.17H57.674L57.674,22.924z M54.004,23.98
	c-1.08,0-1.695,0.428-1.695,1.186c0,0.922,0.9,1.027,1.59,1.186c0.555,0.127,0.869,0.188,0.869,0.518
	c0,0.293-0.268,0.479-0.703,0.479c-0.487,0-0.789-0.18-0.826-0.645h-1.012c0.016,0.99,0.848,1.373,1.814,1.373
	c1.103,0,1.77-0.502,1.77-1.313c0-0.877-0.811-1.059-1.508-1.201c-0.615-0.127-0.943-0.172-0.943-0.494
	c0-0.24,0.225-0.383,0.6-0.383c0.428,0,0.674,0.129,0.734,0.533h0.99C55.654,24.318,54.889,23.98,54.004,23.98z M62.758,23.98
	c-1.125,0-1.943,0.87-1.943,2.07c0,1.215,0.788,2.025,1.98,2.025c0.877,0,1.574-0.473,1.814-1.313h-1.02
	c-0.158,0.391-0.396,0.563-0.787,0.563c-0.57,0-0.893-0.359-0.908-1.027h2.775v-0.105C64.67,24.836,63.928,23.98,62.758,23.98z
	 M45.432,24.004c-0.578,0-1.014,0.301-1.254,0.803v-0.713h-1.012v3.869h1.064v-1.77c0-0.705,0.287-1.23,1.021-1.23
	c0.12,0,0.225,0.008,0.412,0.045v-0.982C45.559,24.011,45.514,24.004,45.432,24.004L45.432,24.004z M47.021,24.094v2.602
	c0,0.922,0.518,1.38,1.35,1.38c0.555,0,0.967-0.232,1.26-0.66v0.547h1.012v-3.869h-1.057v1.994c0,0.585-0.172,1.096-0.84,1.096
	c-0.607,0-0.652-0.39-0.652-0.877v-2.213L47.021,24.094L47.021,24.094z M62.758,24.754c0.533,0,0.787,0.396,0.832,0.869h-1.695
	C61.955,25.083,62.285,24.754,62.758,24.754z M68.057,24.828c0.578,0,0.924,0.443,0.924,1.193c0,0.758-0.339,1.191-0.924,1.191
	c-0.57,0-0.914-0.449-0.914-1.199C67.143,25.271,67.479,24.828,68.057,24.828z"/>
</svg>
