<?xml version="1.0" encoding="utf-8"?>
<!-- Generator: Adobe Illustrator 16.0.0, SVG Export Plug-In . SVG Version: 6.00 Build 0)  -->
<!DOCTYPE svg PUBLIC "-//W3C//DTD SVG 1.1//EN" "http://www.w3.org/Graphics/SVG/1.1/DTD/svg11.dtd">
<svg version="1.1" id="Layer_1" xmlns="http://www.w3.org/2000/svg" xmlns:xlink="http://www.w3.org/1999/xlink" x="0px" y="0px"
	 width="558.5px" height="102.5px" viewBox="-221 -48 558.5 102.5" enable-background="new -221 -48 558.5 102.5"
	 xml:space="preserve">
<path fill="#FFFFFF" d="M-50.226-33.065c-18.766,0-32.174,9.869-32.174,24.245c0,10.717,9.385,16.638,16.625,20.021
	c7.509,3.667,9.917,5.924,9.917,9.025c0,5.076-5.894,7.329-11.527,7.329c-8.311-0.278-13.943-1.971-20.377-5.071l-2.681,16.637
	c4.558,1.971,12.602,3.945,21.182,3.945c20.111,0,32.979-9.869,33.245-25.098c0-8.455-5.093-14.658-16.085-20.021
	c-6.704-3.384-10.726-5.637-10.726-9.021c0-3.101,3.487-6.485,10.996-6.485c5.895,0,10.992,1.409,16.085,3.667l2.682-16.072
	C-37.088-31.378-42.986-33.065-50.226-33.065z M-134.659-31.661l-19.739,50.195l-8.58-43.667c-1.126-4.793-4.23-5.92-8.46-6.203
	h-32.429v2.056c11.281,2.818,16.92,4.995,21.15,7.813l17.041,63.123h20.505l30.371-73.318H-134.659z M-106.983-31.661
	l-15.271,73.318h19.739l15.275-73.318H-106.983z M0.518-31.661c-4.527,0-7.989,1.414-9.852,6.207l-27.959,67.111l19.97,0.282
	l3.727-11H10.64l2.395,10.718H30.61L15.164-31.661H0.518z M1.85-11.922l5.86,28.203H-8.268L1.85-11.922z M91.822-0.484
	l-7.745,42.583h10.324l3.272-17.979c3.093-7.976,12.088-7.963,11.09-2.454l-3.714,20.433h10.323l3.685-20.283
	c2.458-13.51-11.061-14.341-19.727-6.828l2.814-15.472H91.822z M195.708-0.484l-7.745,42.583h10.323l2.365-13.018l9.895,13.018
	h10.975L208.43,25.234l17.923-14.102h-11.608l-12.739,10.546l4.026-22.163H195.708z M72.602,0.158
	c-14.714,0-23.358,9.536-25.303,21.298c-1.949,11.754,3.89,21.289,18.313,21.289c4.031,0,9.432-1.294,13.305-2.904l1.773-9.029
	c-3.483,2.382-9.377,4.189-13.065,4.189c-8.392,0-10.645-7.06-9.377-13.76C59.52,14.538,65.042,7.74,72.786,7.74
	c4.515,0,8.713,1.773,11.129,3.709l1.614-8.387C81.816,1.126,76.979,0.158,72.602,0.158z M299.713,2.419l-5.286,29.356
	c-1.276,7.098,2.588,10.002,7.103,10.002h9.998l1.293-6.776h-6.468c-1.276,0-2.125-0.643-1.765-2.613l2.63-14.483h9.801l1.285-6.771
	h-9.853l1.585-8.713H299.713z M142.36,10.481c-11.181,0-18.955,7.239-20.305,16.132c-1.524,10.002,3.315,16.132,14.607,16.132
	c6.708,0,11.291-1.61,14.521-2.578l1.289-7.745c-3.226,1.61-7.74,3.547-13.875,3.547c-5.804,0-7.106-3.033-7.037-6.772h13.703h3.016
	h6.527C157.635,18.552,153.763,10.481,142.36,10.481z M178.781,10.481c-11.619,0-19.317,7.222-20.854,16.132
	c-1.534,8.91,2.938,16.132,14.315,16.132c3.183,0,6.848-0.659,10.452-1.82l1.49-8.194c-2.75,1.803-6.215,2.917-9.124,2.917
	c-5.487,0-8.104-4.116-7.102-9.197c1.002-5.076,5.482-9.192,10.65-9.192c2.74,0,5.747,1.183,7.828,3.063l1.517-8.336
	C185.084,11.021,181.94,10.481,178.781,10.481z M242.167,10.481c-11.616,0-18.864,7.222-19.841,16.132
	c-0.985,8.91,4.026,16.132,14.032,16.132c9.998,0,18.865-7.222,19.842-16.132S253.775,10.481,242.167,10.481z M262.96,11.133
	l-3.376,18.385c-1.413,7.745,0.651,13.228,8.388,13.228c5.809,0,9.038-3.226,11.292-5.482l-0.96,4.836h10.323l5.629-30.966h-10.323
	l-2.947,16.204c-0.985,5.406-4.746,7.938-7.848,7.989c-2.579,0-3.992-1.431-3.504-4.125l3.649-20.068H262.96z M141.182,16.937
	c3.234,0,4.978,1.983,4.97,6.13h-13.344C134.319,19.554,137.22,16.937,141.182,16.937z M241.199,17.258
	c4.515,0,5.525,4.116,4.841,9.192c-0.686,5.081-3.873,9.197-8.713,9.197c-4.841,0-5.432-4.116-4.746-9.197
	C233.266,21.374,236.685,17.258,241.199,17.258z"/>
</svg>
