<svg xmlns="http://www.w3.org/2000/svg" viewBox="0 0 88 48">
<path fill="#fff" d="M57.6,15.5c-7,0-12,3.5-12,8.6c0,3.8,3.5,5.9,6.2,7.1c2.8,1.3,3.7,2.1,3.7,3.2
	c0,1.8-2.2,2.6-4.3,2.6c-3.1-0.1-5.2-0.7-7.6-1.8l-1,5.9c1.7,0.7,4.7,1.4,7.9,1.4c7.5,0,12.3-3.5,12.4-8.9c0-3-1.9-5.2-6-7.1
	c-2.5-1.2-4-2-4-3.2c0-1.1,1.3-2.3,4.1-2.3c2.2,0,4.1,0.5,6,1.3l1-5.7C62.5,16.1,60.3,15.5,57.6,15.5z M0,16v0.5c4,1,6,2,7.5,3
	L14,42h7.5l11-26H25l-7,17.8l-3.5-15.6c-0.4-1.7-1.5-2.1-3-2.2H0z M35.5,16L31,42h7l4.5-26H35.5z M76.7,16c-1.7,0-3,0.5-3.7,2.2
	L62.5,42l7.5,0.1l1.4-3.9h9.1l0.9,3.8H88l-5.8-26H76.7z M77.2,23l2.2,10h-6L77.2,23z"/>
</svg>